<svg width="65" height="33" viewBox="0 0 65 33" fill="none" xmlns="http://www.w3.org/2000/svg">
<path d="M9.68398 32.132H11.628V29.216C16.524 28.892 19.044 25.472 19.044 22.124C19.044 17.12 15.192 16.076 11.628 15.176V6.392C13.824 6.86 15.012 8.48 15.228 10.028H18.72C18.36 6.392 15.732 3.98 11.628 3.62V0.631998H9.68398V3.62C5.18398 3.908 2.23198 6.68 2.23198 10.568C2.23198 15.536 6.08398 16.58 9.68398 17.516V26.516C7.12798 26.12 5.93998 24.356 5.75998 22.484H2.26798C2.33998 26.3 5.36398 28.82 9.68398 29.216V32.132ZM15.768 22.304C15.768 24.464 14.292 26.264 11.628 26.552V18.056C13.932 18.74 15.768 19.748 15.768 22.304ZM5.57998 10.388C5.57998 7.832 7.27198 6.536 9.68398 6.32V14.636C7.37998 13.916 5.57998 12.944 5.57998 10.388ZM23.9022 9.524H27.1062C27.4302 7.004 29.2662 5.276 32.3262 5.276C35.4582 5.276 37.1142 7.004 37.1142 9.488C37.1142 12.512 34.7742 13.844 30.4182 13.88H29.5542V16.616H30.3822C35.0622 16.616 37.6182 18.02 37.6182 21.692C37.6182 24.356 35.9622 26.408 32.4702 26.408C29.0142 26.408 26.9982 24.284 26.6742 21.512H23.5062C23.9022 26.552 27.5742 29.18 32.5062 29.18C37.9422 29.18 40.7502 26.012 40.7502 21.98C40.7502 18.236 38.6982 16.004 35.6742 15.284V15.104C38.4102 14.492 40.2822 12.152 40.2822 9.164C40.2822 5.42 37.5102 2.468 32.4342 2.468C27.6102 2.468 24.2262 5.06 23.9022 9.524ZM49.2011 15.464C46.2851 16.328 44.3771 18.704 44.3771 21.98C44.3771 26.696 48.0851 29.72 53.5571 29.72C59.0651 29.72 62.8091 26.696 62.8091 21.98C62.8091 18.74 60.9011 16.364 57.9491 15.464C60.5051 14.456 62.1251 12.296 62.1251 9.488C62.1251 5.708 59.2091 2.576 53.5571 2.576C47.9051 2.576 45.0251 5.672 45.0251 9.488C45.0251 12.404 46.5371 14.42 49.2011 15.464ZM53.5571 14.384C50.3891 14.384 48.1931 12.62 48.1931 9.92C48.1931 6.86 50.3531 5.312 53.5571 5.312C56.8331 5.312 58.9571 6.896 58.9571 9.884C58.9571 12.584 56.7611 14.384 53.5571 14.384ZM53.5571 16.904C56.9771 16.904 59.5691 18.524 59.5691 21.872C59.5691 24.896 57.2651 26.984 53.5571 26.984C49.8491 26.984 47.5091 24.932 47.5091 21.872C47.5091 18.416 50.2091 16.904 53.5571 16.904Z" fill="#FF6838"/>
<path d="M0.0719795 17.192H64.9331V18.992H0.0719795V17.192Z" fill="#FF6838"/>
</svg>
