<svg width="127" height="127" viewBox="0 0 127 127" fill="none" xmlns="http://www.w3.org/2000/svg">
<path d="M63.5 0L70.5452 9.98676L79.935 2.16371L84.1553 13.6336L95.25 8.50739L96.3579 20.6788L108.401 18.5987L106.321 30.6421L118.493 31.75L113.366 42.8447L124.836 47.065L117.013 56.4548L127 63.5L117.013 70.5452L124.836 79.935L113.366 84.1553L118.493 95.25L106.321 96.3579L108.401 108.401L96.3579 106.321L95.25 118.493L84.1553 113.366L79.935 124.836L70.5452 117.013L63.5 127L56.4548 117.013L47.065 124.836L42.8447 113.366L31.75 118.493L30.6421 106.321L18.5987 108.401L20.6788 96.3579L8.50739 95.25L13.6336 84.1553L2.16371 79.935L9.98676 70.5452L0 63.5L9.98676 56.4548L2.16371 47.065L13.6336 42.8447L8.50739 31.75L20.6788 30.6421L18.5987 18.5987L30.6421 20.6788L31.75 8.50739L42.8447 13.6336L47.065 2.16371L56.4548 9.98676L63.5 0Z" fill="#FF6838"/>
<path d="M39.4178 67.9514C39.4178 69.909 38.0269 71.0681 35.7086 71.0681H31.5616V64.7316H35.6314C37.9239 64.7316 39.4178 65.968 39.4178 67.9514ZM38.9542 59.8891C38.9542 61.7179 37.692 62.7997 35.5026 62.7997H31.5616V56.9784H35.4511C37.7435 56.9784 38.9542 58.1117 38.9542 59.8891ZM41.7618 68.1832C41.7618 65.968 40.1648 64.0877 38.2072 63.7528C39.933 63.1861 41.3497 61.8724 41.3497 59.6057C41.3497 57.1072 39.4436 55.0465 35.6571 55.0465H29.2176V73H35.9147C39.6239 73 41.7618 70.8878 41.7618 68.1832ZM57.121 65.9165C57.121 61.4603 54.0042 58.6527 49.986 58.6527C45.9934 58.6527 42.8509 61.4603 42.8509 65.9165C42.8509 70.3984 45.8904 73.2318 49.8829 73.2318C53.9012 73.2318 57.121 70.3984 57.121 65.9165ZM45.2464 65.9165C45.2464 62.3619 47.4874 60.6876 49.9602 60.6876C52.3815 60.6876 54.7255 62.3619 54.7255 65.9165C54.7255 69.4969 52.3299 71.1712 49.8829 71.1712C47.4359 71.1712 45.2464 69.4969 45.2464 65.9165ZM69.244 73H71.5623V64.6801C71.5623 60.6361 69.0637 58.6269 65.7924 58.6269C63.8863 58.6269 62.1863 59.4254 61.259 60.8936V58.8845H58.915V73H61.259V65.1953C61.259 62.1558 62.9075 60.6618 65.303 60.6618C67.6728 60.6618 69.244 62.13 69.244 65.0149V73ZM86.6218 58.8845H84.2778V66.6377C84.2778 69.6772 82.655 71.1712 80.2338 71.1712C77.864 71.1712 76.2927 69.7029 76.2927 66.8438V58.8845H73.9745V67.1529C73.9745 71.1969 76.5246 73.2061 79.7701 73.2061C81.6505 73.2061 83.3763 72.3818 84.2778 70.9136V73H86.6218V58.8845ZM99.4403 69.162C99.3373 64.1134 91.1462 65.9422 91.1462 62.5937C91.1462 61.4603 92.1765 60.6361 93.9023 60.6361C95.7827 60.6361 96.8645 61.6664 96.9675 63.0831H99.3115C99.157 60.327 97.0963 58.6527 93.9796 58.6527C90.8371 58.6527 88.8022 60.43 88.8022 62.5937C88.8022 67.8484 97.1479 66.0195 97.1479 69.162C97.1479 70.3211 96.1175 71.2484 94.2629 71.2484C92.2796 71.2484 91.0689 70.2181 90.9401 68.8529H88.5188C88.6734 71.4287 90.9916 73.2318 94.2887 73.2318C97.4054 73.2318 99.4403 71.4803 99.4403 69.162Z" fill="white"/>
</svg>
