<svg width="137" height="36" viewBox="0 0 137 36" fill="none" xmlns="http://www.w3.org/2000/svg">
<path d="M49.4899 15.964C49.9299 15.964 50.3626 16.096 50.7879 16.36C51.2132 16.6093 51.5946 17.0347 51.9319 17.636L54.7039 16.888C54.3519 15.8173 53.7286 14.9153 52.8339 14.182C51.9539 13.4487 50.7806 13.082 49.3139 13.082C48.3899 13.082 47.4879 13.3387 46.6079 13.852C45.7279 14.3653 45.0166 15.0693 44.4739 15.964C43.9312 16.844 43.6599 17.812 43.6599 18.868C43.6599 20.0853 43.9239 21.1487 44.4519 22.058C44.9799 22.9673 45.6839 23.664 46.5639 24.148C47.4439 24.632 48.3972 24.874 49.4239 24.874C50.6852 24.874 51.7926 24.544 52.7459 23.884C53.7139 23.2093 54.4032 22.2927 54.8139 21.134L51.9539 20.298C51.7779 20.7967 51.4552 21.2073 50.9859 21.53C50.5166 21.8527 50.0106 22.014 49.4679 22.014C48.5732 22.014 47.8692 21.7133 47.3559 21.112C46.8572 20.496 46.6079 19.7407 46.6079 18.846C46.6079 18.1713 46.8426 17.548 47.3119 16.976C47.7812 16.404 48.4119 16.074 49.2039 15.986L49.4899 15.964Z" fill="black"/>
<path d="M58.2223 21.112C58.2223 20.1147 58.2443 19.3667 58.2883 18.868C58.3323 18.3547 58.413 17.9513 58.5303 17.658C58.6477 17.35 58.8383 17.0493 59.1023 16.756C59.5423 16.2573 60.151 16.008 60.9283 16.008C61.4123 16.008 61.8597 16.1033 62.2703 16.294L63.0623 13.676C62.6223 13.412 62.043 13.28 61.3243 13.28C60.8843 13.28 60.503 13.3387 60.1803 13.456C59.6523 13.6467 59.2343 13.8813 58.9263 14.16C58.633 14.4387 58.3983 14.798 58.2223 15.238V13.632H55.3623V24.39L58.2223 24.412V21.112Z" fill="black"/>
<path d="M66.3989 24.764C65.2549 24.764 64.3529 24.5073 63.6929 23.994C63.0329 23.4807 62.6442 22.7693 62.5269 21.86C62.5122 21.7573 62.5049 21.6107 62.5049 21.42C62.5049 20.4227 62.8422 19.6527 63.5169 19.11C64.2062 18.5673 65.1449 18.2227 66.3329 18.076L67.0369 17.988C67.6089 17.9147 68.0489 17.8487 68.3569 17.79C68.6796 17.7313 68.8922 17.658 68.9949 17.57C69.0536 17.526 69.1049 17.4453 69.1489 17.328C69.1929 17.196 69.2149 17.064 69.2149 16.932C69.2149 16.668 69.1196 16.426 68.9289 16.206C68.7529 15.9713 68.4522 15.7953 68.0269 15.678C67.7336 15.6047 67.4842 15.568 67.2789 15.568C66.7509 15.568 66.3109 15.722 65.9589 16.03C65.6069 16.3233 65.3796 16.756 65.2769 17.328L62.7029 16.778C62.7909 16.25 63.0182 15.7293 63.3849 15.216C63.7516 14.688 64.2942 14.2187 65.0129 13.808C65.7609 13.3973 66.6189 13.192 67.5869 13.192C68.2469 13.192 68.8849 13.302 69.5009 13.522C70.4689 13.8887 71.1876 14.3947 71.6569 15.04C72.1262 15.6853 72.3609 16.4113 72.3609 17.218L72.4269 24.434H69.5449L69.4569 23.18C69.1489 23.6053 68.7382 23.9793 68.2249 24.302C67.7262 24.61 67.1176 24.764 66.3989 24.764ZM67.6529 22.454C68.2542 22.322 68.7162 22.058 69.0389 21.662C69.3616 21.266 69.5229 20.804 69.5229 20.276C69.5229 20.1293 69.5156 20.0193 69.5009 19.946C69.1636 20.0047 68.7969 20.0487 68.4009 20.078C68.0196 20.0927 67.7556 20.1073 67.6089 20.122C67.0516 20.1513 66.6262 20.188 66.3329 20.232C66.0542 20.276 65.8269 20.3787 65.6509 20.54C65.4896 20.7013 65.4089 20.9433 65.4089 21.266C65.4089 21.6767 65.5409 21.992 65.8049 22.212C66.0836 22.432 66.4576 22.542 66.9269 22.542C67.0589 22.542 67.3009 22.5127 67.6529 22.454Z" fill="black"/>
<path d="M80.1224 11.08C79.8144 11.036 79.5431 11.014 79.3084 11.014C78.6924 11.014 78.2817 11.168 78.0764 11.476C77.8711 11.7693 77.7684 12.1873 77.7684 12.73L77.7904 13.522H80.2104L80.2324 16.052H77.7684V24.412L74.7544 24.434V16.052H72.9944L72.9724 13.522H73.7864C74.1384 13.522 74.3804 13.456 74.5124 13.324C74.6444 13.192 74.7104 12.9427 74.7104 12.576C74.7104 11.52 74.9011 10.7133 75.2824 10.156C75.6637 9.51067 76.1991 8.99 76.8884 8.594C77.5924 8.198 78.3697 8 79.2204 8C79.7484 8 80.2617 8.07333 80.7604 8.22L80.1224 11.08Z" fill="black"/>
<path d="M87.6421 24.104C87.5688 24.1333 87.3927 24.1993 87.1141 24.302C86.8501 24.4047 86.5788 24.4853 86.3001 24.544C86.0361 24.6027 85.7574 24.632 85.4641 24.632C85.0828 24.632 84.7161 24.5953 84.3641 24.522C83.4548 24.346 82.7728 23.9207 82.3181 23.246C81.8781 22.5713 81.6581 21.8673 81.6581 21.134V16.096H79.7661V13.566H80.9541C81.2767 13.566 81.4967 13.5147 81.6141 13.412C81.7314 13.2947 81.7901 13.104 81.7901 12.84V10.31H84.5841V13.566H87.1581V16.096H84.5621V19.308C84.5621 20.0707 84.5841 20.584 84.6281 20.848C84.6721 21.0973 84.7674 21.31 84.9141 21.486C85.1194 21.7353 85.4274 21.86 85.8381 21.86C86.2194 21.86 86.5494 21.772 86.8281 21.596L87.6421 24.104Z" fill="black"/>
<path d="M100.633 20.694L98.3454 13.478H95.4414L93.1754 20.606L91.0414 13.544H87.9614L91.5034 24.434H94.6054L96.8274 17.108L99.0934 24.456H102.217L105.627 13.588H102.547L100.633 20.694Z" fill="black"/>
<path d="M105.062 18.934C105.062 17.8927 105.311 16.932 105.81 16.052C106.323 15.172 107.02 14.4753 107.9 13.962C108.794 13.4487 109.777 13.192 110.848 13.192C111.918 13.192 112.894 13.4487 113.774 13.962C114.654 14.4753 115.343 15.172 115.842 16.052C116.355 16.932 116.612 17.8927 116.612 18.934C116.612 19.9753 116.355 20.9507 115.842 21.86C115.343 22.7547 114.646 23.4733 113.752 24.016C112.872 24.544 111.904 24.808 110.848 24.808C109.777 24.808 108.802 24.544 107.922 24.016C107.042 23.4733 106.345 22.7547 105.832 21.86C105.318 20.9507 105.062 19.9753 105.062 18.934ZM107.966 18.956C107.966 19.5867 108.098 20.144 108.362 20.628C108.64 21.0973 109 21.464 109.44 21.728C109.88 21.9773 110.356 22.102 110.87 22.102C111.383 22.102 111.86 21.9773 112.3 21.728C112.74 21.464 113.092 21.0973 113.356 20.628C113.62 20.144 113.752 19.5867 113.752 18.956C113.752 18.3547 113.612 17.8193 113.334 17.35C113.07 16.8807 112.718 16.514 112.278 16.25C111.838 15.986 111.368 15.854 110.87 15.854C110.371 15.854 109.894 15.986 109.44 16.25C109 16.514 108.64 16.8807 108.362 17.35C108.098 17.8193 107.966 18.3547 107.966 18.956Z" fill="black"/>
<path d="M120.242 21.112C120.242 20.1147 120.264 19.3667 120.308 18.868C120.352 18.3547 120.433 17.9513 120.55 17.658C120.667 17.35 120.858 17.0493 121.122 16.756C121.562 16.2573 122.171 16.008 122.948 16.008C123.432 16.008 123.879 16.1033 124.29 16.294L125.082 13.676C124.642 13.412 124.063 13.28 123.344 13.28C122.904 13.28 122.523 13.3387 122.2 13.456C121.672 13.6467 121.254 13.8813 120.946 14.16C120.653 14.4387 120.418 14.798 120.242 15.238V13.632H117.382V24.39L120.242 24.412V21.112Z" fill="black"/>
<path d="M128.441 19.506V24.434H125.405V8.33H128.463V17.768L132.357 13.5H135.899L131.565 18.582L136.493 24.434H132.577L128.441 19.506Z" fill="black"/>
<path d="M18 36C27.9411 36 36 27.9411 36 18C36 8.05888 27.9411 0 18 0C8.05888 0 0 8.05888 0 18C0 27.9411 8.05888 36 18 36Z" fill="#345DEE"/>
<path fill-rule="evenodd" clip-rule="evenodd" d="M18.084 20.5583C21.4016 15.8667 21.548 13.0233 18.084 8C14.5538 13.1305 15.0088 15.8499 18.084 20.5583ZM16.5086 26.6697C17.0359 20.9478 15.741 18.4122 10.2294 15.7939C9.73749 22.0021 11.4913 24.1297 16.5086 26.6697ZM19.6808 26.6697C19.1535 20.9478 20.4484 18.4122 25.96 15.7939C26.4519 22.0021 24.6981 24.1297 19.6808 26.6697Z" fill="white"/>
</svg>
