<svg width="80" height="80" viewBox="0 0 80 80" fill="none" xmlns="http://www.w3.org/2000/svg">
<rect width="80" height="80" rx="25" fill="#FFE6DF"/>
<path opacity="0.3" fill-rule="evenodd" clip-rule="evenodd" d="M49.2083 34.3333C51.1643 34.3333 52.75 32.7477 52.75 30.7917C52.75 28.8357 51.1643 27.25 49.2083 27.25C47.2523 27.25 45.6667 28.8357 45.6667 30.7917C45.6667 32.7477 47.2523 34.3333 49.2083 34.3333ZM49.2083 52.75C51.1643 52.75 52.75 51.1643 52.75 49.2083C52.75 47.2523 51.1643 45.6667 49.2083 45.6667C47.2523 45.6667 45.6667 47.2523 45.6667 49.2083C45.6667 51.1643 47.2523 52.75 49.2083 52.75ZM34.3333 49.2083C34.3333 51.1643 32.7477 52.75 30.7917 52.75C28.8357 52.75 27.25 51.1643 27.25 49.2083C27.25 47.2523 28.8357 45.6667 30.7917 45.6667C32.7477 45.6667 34.3333 47.2523 34.3333 49.2083Z" fill="#FF613F"/>
<path fill-rule="evenodd" clip-rule="evenodd" d="M30.7917 34.3333C32.7477 34.3333 34.3333 32.7477 34.3333 30.7917C34.3333 28.8357 32.7477 27.25 30.7917 27.25C28.8357 27.25 27.25 28.8357 27.25 30.7917C27.25 32.7477 28.8357 34.3333 30.7917 34.3333ZM37.1667 30.0833C37.1667 29.3009 37.8009 28.6667 38.5833 28.6667H41.4167C42.1991 28.6667 42.8333 29.3009 42.8333 30.0833C42.8333 30.8657 42.1991 31.5 41.4167 31.5H38.5833C37.8009 31.5 37.1667 30.8657 37.1667 30.0833ZM38.5833 48.5C37.8009 48.5 37.1667 49.1343 37.1667 49.9167C37.1667 50.6991 37.8009 51.3333 38.5833 51.3333H41.4167C42.1991 51.3333 42.8333 50.6991 42.8333 49.9167C42.8333 49.1343 42.1991 48.5 41.4167 48.5H38.5833ZM28.6667 38.5833C28.6667 37.8009 29.3009 37.1667 30.0833 37.1667C30.8657 37.1667 31.5 37.8009 31.5 38.5833V41.4167C31.5 42.1991 30.8657 42.8333 30.0833 42.8333C29.3009 42.8333 28.6667 42.1991 28.6667 41.4167V38.5833ZM49.9167 37.1667C49.1343 37.1667 48.5 37.8009 48.5 38.5833V41.4167C48.5 42.1991 49.1343 42.8333 49.9167 42.8333C50.6991 42.8333 51.3333 42.1991 51.3333 41.4167V38.5833C51.3333 37.8009 50.6991 37.1667 49.9167 37.1667Z" fill="#FF613F"/>
</svg>
