<svg width="80" height="80" viewBox="0 0 80 80" fill="none" xmlns="http://www.w3.org/2000/svg">
<rect width="80" height="80" rx="25" fill="#FCF3DF"/>
<path fill-rule="evenodd" clip-rule="evenodd" d="M23.255 49.9166L33.0583 29.5732L42.8617 49.9166H40.085L37.5917 44.6466H28.525L26.0317 49.9166H23.255ZM33.0583 35.0697L29.6583 42.2663H36.4583L33.0583 35.0697Z" fill="#FF994F"/>
<path opacity="0.3" fill-rule="evenodd" clip-rule="evenodd" d="M53.2316 48.5001V49.9168H55.6683V35.7501H53.2316V37.1668C52.0416 36.0901 50.455 35.5234 48.7266 35.5234C44.5616 35.5234 41.5016 38.7251 41.5016 42.8334C41.5016 46.9418 44.5616 50.1434 48.7266 50.1434C50.455 50.1434 52.0416 49.5768 53.2316 48.5001ZM53.2317 45.5536C52.41 46.8853 50.8233 47.8486 48.7833 47.8486C46.0067 47.8486 44.0233 45.6386 44.0233 42.8336C44.0233 40.0286 46.0067 37.8186 48.7833 37.8186C50.8233 37.8186 52.41 38.782 53.2317 40.1136V45.5536Z" fill="#FF994F"/>
</svg>
