<svg width="80" height="80" viewBox="0 0 80 80" fill="none" xmlns="http://www.w3.org/2000/svg">
<rect width="80" height="80" rx="25" fill="#FFEAF1"/>
<path fill-rule="evenodd" clip-rule="evenodd" d="M42.125 31.4999C42.125 31.4999 41.7795 36.3571 39.7557 37.8749C39.7557 37.8749 40.7083 28.6666 37.9791 25.8333C37.9791 25.8333 37.9791 31.3987 35.4493 35.9523C34.2635 38.0868 32.9196 40.2008 32.9196 43.0356C32.9196 47.0833 37.8321 48.4999 40.007 48.4999C42.5536 48.4999 47.0833 47.0833 47.0833 42.1249C47.0833 39.0667 42.125 31.4999 42.125 31.4999Z" fill="#F32688"/>
<path opacity="0.3" d="M34.3334 52.7499C34.3334 51.9675 34.9676 51.3333 35.75 51.3333H44.25C45.0324 51.3333 45.6667 51.9675 45.6667 52.7499V55.5833H34.3334V52.7499Z" fill="#F32688"/>
</svg>
