<svg width="80" height="80" viewBox="0 0 80 80" fill="none" xmlns="http://www.w3.org/2000/svg">
<rect width="80" height="80" rx="25" fill="#EDECFF"/>
<path opacity="0.3" fill-rule="evenodd" clip-rule="evenodd" d="M27.3164 42.4047L30.0169 43.262C31.9419 37.1982 35.2161 34.3333 40 34.3333C44.7839 34.3333 48.0581 37.1982 49.9831 43.262L52.6836 42.4047C50.4111 35.2462 46.1297 31.5 40 31.5C33.8703 31.5 29.5889 35.2462 27.3164 42.4047ZM40 31.5C40.7824 31.5 41.4167 32.1343 41.4167 32.9167C41.4167 33.6991 40.7824 34.3333 40 34.3333C39.2176 34.3333 38.5833 33.6991 38.5833 32.9167C38.5833 32.1343 39.2176 31.5 40 31.5Z" fill="#6C54FD"/>
<path fill-rule="evenodd" clip-rule="evenodd" d="M40 37.1667C41.8505 37.1667 43.4247 35.9841 44.0082 34.3334H48.879C49.3689 35.1803 50.2846 35.7501 51.3333 35.7501C52.8981 35.7501 54.1667 34.4816 54.1667 32.9167C54.1667 31.3519 52.8981 30.0834 51.3333 30.0834C50.2846 30.0834 49.3689 30.6532 48.879 31.5001H44.0082C43.4247 29.8494 41.8505 28.6667 40 28.6667C38.1495 28.6667 36.5753 29.8494 35.9918 31.5001H31.1209C30.631 30.6532 29.7154 30.0834 28.6667 30.0834C27.1018 30.0834 25.8333 31.3519 25.8333 32.9167C25.8333 34.4816 27.1018 35.7501 28.6667 35.7501C29.7154 35.7501 30.631 35.1803 31.1209 34.3334H35.9918C36.5753 35.9841 38.1495 37.1667 40 37.1667ZM41.4167 32.9167C41.4167 33.6991 40.7824 34.3333 40 34.3333C39.2176 34.3333 38.5833 33.6991 38.5833 32.9167C38.5833 32.1343 39.2176 31.5 40 31.5C40.7824 31.5 41.4167 32.1343 41.4167 32.9167ZM28.6667 49.9167C31.0139 49.9167 32.9167 48.014 32.9167 45.6667C32.9167 43.3195 31.0139 41.4167 28.6667 41.4167C26.3194 41.4167 24.4167 43.3195 24.4167 45.6667C24.4167 48.014 26.3194 49.9167 28.6667 49.9167ZM30.0833 45.6667C30.0833 46.4491 29.4491 47.0833 28.6667 47.0833C27.8843 47.0833 27.25 46.4491 27.25 45.6667C27.25 44.8843 27.8843 44.25 28.6667 44.25C29.4491 44.25 30.0833 44.8843 30.0833 45.6667ZM51.3333 49.9167C53.6805 49.9167 55.5833 48.0139 55.5833 45.6667C55.5833 43.3195 53.6805 41.4167 51.3333 41.4167C48.9861 41.4167 47.0833 43.3195 47.0833 45.6667C47.0833 48.0139 48.9861 49.9167 51.3333 49.9167ZM52.75 45.6667C52.75 46.4491 52.1157 47.0833 51.3333 47.0833C50.5509 47.0833 49.9167 46.4491 49.9167 45.6667C49.9167 44.8843 50.5509 44.25 51.3333 44.25C52.1157 44.25 52.75 44.8843 52.75 45.6667Z" fill="#6C54FD"/>
</svg>
