<svg width="80" height="80" viewBox="0 0 80 80" fill="none" xmlns="http://www.w3.org/2000/svg">
<rect width="80" height="80" rx="25" fill="#EFF2FF"/>
<path opacity="0.3" fill-rule="evenodd" clip-rule="evenodd" d="M40 38.4163C38.6768 37.4225 37.0322 36.8336 35.25 36.8336C30.8778 36.8336 27.3334 40.378 27.3334 44.7502C27.3334 49.1225 30.8778 52.6669 35.25 52.6669C37.0323 52.6669 38.6769 52.078 40.0001 51.0841C41.3232 52.0779 42.9678 52.6668 44.75 52.6668C49.1222 52.6668 52.6667 49.1224 52.6667 44.7502C52.6667 40.3779 49.1222 36.8335 44.75 36.8335C42.9678 36.8335 41.3231 37.4224 40 38.4163ZM42.1115 40.7987C42.7827 41.9616 43.1667 43.3111 43.1667 44.7502C43.1667 46.1893 42.7827 47.5387 42.1117 48.7015C42.8799 49.2162 43.7903 49.5002 44.75 49.5002C47.3733 49.5002 49.5 47.3735 49.5 44.7502C49.5 42.1268 47.3733 40.0002 44.75 40.0002C43.789 40.0002 42.8779 40.2859 42.1115 40.7987Z" fill="#1D52DD"/>
<path fill-rule="evenodd" clip-rule="evenodd" d="M40 43.1668C44.3723 43.1668 47.9167 39.6224 47.9167 35.2502C47.9167 30.8779 44.3723 27.3335 40 27.3335C35.6278 27.3335 32.0834 30.8779 32.0834 35.2502C32.0834 39.6224 35.6278 43.1668 40 43.1668Z" fill="#1D52DD"/>
</svg>
